<?xml version="1.0" standalone="no"?>
<!DOCTYPE svg PUBLIC "-//W3C//DTD SVG 20010904//EN"
 "http://www.w3.org/TR/2001/REC-SVG-20010904/DTD/svg10.dtd">
<svg version="1.0" xmlns="http://www.w3.org/2000/svg"
 width="122.000000pt" height="122.000000pt" viewBox="0 0 122.000000 122.000000"
 preserveAspectRatio="xMidYMid meet">
<metadata>
Created by potrace 1.11, written by Peter Selinger 2001-2013
</metadata>
<g transform="translate(0.000000,122.000000) scale(0.100000,-0.100000)"
fill="#000000" stroke="none">
<path d="M0 605 l0 -605 610 0 610 0 0 605 0 605 -610 0 -610 0 0 -605z m618
521 c2 -21 -1 -43 -7 -49 -6 -6 -11 -21 -11 -34 0 -13 -4 -23 -10 -23 -5 0
-10 6 -10 13 0 7 -9 32 -20 55 -11 22 -20 43 -20 46 0 14 35 37 54 34 17 -2
22 -11 24 -42z m86 -15 c6 -10 -20 -35 -46 -44 -23 -8 -23 11 -1 35 17 19 38
24 47 9z m-170 -56 c4 -11 -2 -15 -24 -15 -20 0 -30 5 -30 15 0 9 9 15 24 15
13 0 26 -7 30 -15z m188 -32 c10 -9 18 -20 18 -25 0 -11 -119 -125 -138 -133
-8 -3 -26 4 -42 15 -15 11 -34 20 -41 20 -41 0 -66 74 -34 100 32 27 104 -32
105 -85 1 -29 1 -29 15 -11 8 11 15 27 15 36 0 25 29 78 48 90 24 13 33 12 54
-7z m63 -83 c0 -10 -12 -16 -40 -18 l-40 -2 24 20 c27 23 56 23 56 0z m-315
-40 c17 -11 17 -11 -28 -13 -31 -2 -39 3 -25 16 9 10 36 8 53 -3z m150 -95 c0
-8 11 -22 24 -30 23 -15 23 -18 10 -43 -8 -15 -14 -37 -14 -49 0 -21 5 -23 54
-23 30 0 58 -5 61 -10 4 -6 -5 -23 -19 -37 -18 -18 -23 -30 -16 -37 12 -12
-15 -46 -37 -46 -7 0 -13 -9 -13 -19 0 -11 -4 -23 -10 -26 -28 -17 1 -25 112
-27 100 -2 123 -6 126 -18 1 -8 -8 -20 -20 -25 -13 -6 -27 -24 -33 -40 -15
-47 -51 -91 -85 -105 -31 -13 -37 -24 -20 -35 12 -8 -6 -35 -23 -35 -10 0 -36
-30 -37 -42 0 -5 39 -8 87 -8 48 0 125 -5 172 -11 139 -18 128 -12 127 -69
l-1 -50 -457 0 c-252 0 -458 3 -458 8 0 4 5 14 10 22 6 10 4 20 -6 31 -13 14
-13 18 0 28 23 19 111 32 249 38 112 4 128 7 125 21 -2 9 -16 23 -31 30 -26
13 -38 42 -17 42 6 0 10 5 10 10 0 6 -7 10 -16 10 -23 0 -84 64 -84 89 0 12
-3 21 -8 21 -4 0 -12 10 -17 23 -6 12 -20 23 -32 25 -28 4 -29 10 -5 28 11 9
51 13 125 14 66 0 107 4 107 10 0 6 -7 13 -16 17 -8 3 -13 11 -10 19 3 7 -7
20 -20 29 -16 10 -23 22 -20 31 7 18 -14 54 -31 54 -7 0 -13 9 -13 20 0 18 7
20 59 20 33 0 63 4 66 10 3 5 -3 28 -14 50 -19 40 -19 40 0 50 10 6 19 20 19
30 0 13 7 20 20 20 11 0 20 -7 20 -15z"/>
</g>
</svg>
